<svg xmlns="http://www.w3.org/2000/svg" xmlns:xlink="http://www.w3.org/1999/xlink" enable-background="new 0 0 72 72" viewBox="0 0 72 72" id="kid"><circle cx="36.001" cy="36.002" r="35" fill="#55BEC1"></circle><defs><circle id="a" cx="36.001" cy="35.998" r="35"></circle></defs><clipPath id="b"><use overflow="visible" xlink:href="#a"></use></clipPath><g clip-path="url(#b)"><path fill="#806B8F" d="M67.447,71.0015H4.5558l3.3268-12.3779c1.044-3.8615,4.5141-6.8077,8.8338-7.7753
					c1.0134-0.2266,2.0677-0.3487,3.1425-0.3487h23.7991c0.0102,0,0.0102,0,0.0102,0h8.4756c1.085,0,2.1393,0.122,3.1425,0.3487
					c4.3299,0.9675,7.8,3.9138,8.8338,7.7753L67.447,71.0015z"></path><path fill="#8E769F" d="M45.5515,53.6255l0.3382,9.5041l-9.8569-5.4933l-9.8346,5.4933l0.0179-9.2571
						c0.0042-2.2018,1.3487-4.1791,3.3947-4.9926l0.1657-0.0659c0.633-0.2517,1.3081-0.381,1.9893-0.381h8.4052
						c0.7357,0,1.4635,0.1508,2.1387,0.443l0,0C44.216,49.7011,45.4776,51.5495,45.5515,53.6255z"></path><path fill="#CED7DC" d="M55.2864 50.8483v20.1531h-5.1488V50.4996h2.0063C53.2289 50.4996 54.2832 50.6217 55.2864 50.8483zM21.8652 50.4996v20.5018h-5.1488V50.8483c1.0134-.2266 2.0677-.3487 3.1425-.3487H21.8652z"></path><path fill="#F8A771" d="M41.6299,39.3095v11.5601c0,3.1085-2.52,5.6285-5.6285,5.6285h0c-3.1085,0-5.6285-2.52-5.6285-5.6285
				V39.3095H41.6299z"></path><path fill="#FAB687" d="M49.2369,28.7035c0,1.3919-0.0952,2.7621-0.2683,4.0779c-1.2378,9.2432-6.5701,16.1919-12.9671,16.1919
				s-11.7293-6.9487-12.9671-16.1919c-0.1731-1.3158-0.2683-2.686-0.2683-4.0779c0-5.6112,1.4889-10.6786,3.8953-14.3542
				c2.3978-3.6538,5.6958-5.9157,9.3401-5.9157c3.6443,0,6.9424,2.2619,9.3401,5.9157
				C47.748,18.0249,49.2369,23.0923,49.2369,28.7035z"></path><circle cx="30.38" cy="34.606" r="1.754" fill="#3D2F46"></circle><circle cx="41.623" cy="34.606" r="1.754" fill="#3D2F46"></circle><path fill="#3D2F46" d="M31.8443 30.4138L31.786 30.116c-.0768-.3918-.4567-.6472-.8484-.5706l-3.8611.7565c-.3918.0768-.6473.4567-.5705.8485l.0583.2979c.0767.3918.4566.6472.8484.5704l3.8611-.7565C31.6656 31.1856 31.921 30.8057 31.8443 30.4138zM44.9264 30.3019l-3.8611-.7565c-.3918-.0767-.7717.1787-.8484.5706l-.0583.2979c-.0767.3918.1786.7717.5705.8484l3.8611.7565c.3918.0768.7717-.1786.8484-.5704l.0583-.2979C45.5736 30.7586 45.3182 30.3787 44.9264 30.3019z"></path><path fill="#3D2F46" d="M22.859,32.9504c-0.1251-0.4964-0.1496-1.0015-0.0304-1.5313
				c3.0582-13.7201,18.6346-4.7121,18.9202-16.0405c9.1195,5.7851,3.6055,12.0645,6.6941,17.5718h1.4494
				c1.7756-2.6453,2.804-5.8241,2.804-9.254c0-6.64-3.8792-12.3753-9.4958-15.0648c-2.1775-1.0472-4.6169-1.6301-7.1992-1.6301
				c-1.6182,0-3.177,0.2259-4.6526,0.6664c-6.9611,2.0109-12.0423,8.4245-12.0423,16.0285c0,3.4294,1.0321,6.6063,2.8012,9.254
				H22.859z"></path><g><path fill="#FAB687" d="M50.3848 28.6122c-1.4417 0-2.7166 2.0022-2.8449 4.4229-.1255 2.368.8979 4.2501 2.2833 4.2501s2.6526-1.8821 2.8337-4.2501C52.8422 30.6144 51.8265 28.6122 50.3848 28.6122zM21.618 28.6122c-1.4418 0-2.4573 2.0022-2.2722 4.4229.1812 2.368 1.4482 4.2501 2.8337 4.2501 1.3855 0 2.4088-1.8821 2.2833-4.2501C24.3345 30.6144 23.0597 28.6122 21.618 28.6122z"></path></g><path fill="#663430" d="M33.5356,45.2875c-1.1265,0-1.86-1.227-1.289-2.198c0.7571-1.2876,2.1574-2.1544,3.7549-2.1544
				c1.5975,0,2.9978,0.8668,3.7549,2.1544c0.571,0.971-0.1626,2.198-1.289,2.198H33.5356z"></path></g></svg>